<?xml version="1.0" encoding="utf-8"?>
<svg viewBox="238.104 238.104 23.792 23.792" xmlns="http://www.w3.org/2000/svg">
  <circle style="fill: rgb(238, 124, 83);" cx="250" cy="250" r="8"/>
  <g>
    <g transform="matrix(0.707107, -0.707107, 0.707107, 0.707107, -103.006561, 250.543411)">
      <rect x="249.126" y="245.992" width="1.743" height="6.525" style="fill: rgb(255, 255, 255);"/>
      <path style="fill: rgb(255, 255, 255);" d="M 249.566 244.717 C 250.233 244.717 250.65 245.439 250.316 246.016 C 250.162 246.284 249.876 246.45 249.566 246.45" transform="matrix(0, -1, 1, 0, 4.416321, 495.583313)"/>
      <path style="fill: rgb(255, 255, 255);" d="M 249.566 252.008 C 250.233 252.008 250.65 252.73 250.316 253.307 C 250.162 253.575 249.876 253.741 249.566 253.741" transform="matrix(0, 1, -1, 0, 502.874313, 2.87468)"/>
    </g>
    <g transform="matrix(0.707107, 0.707107, -0.707107, 0.707107, 249.456589, -103.006561)">
      <rect x="249.126" y="245.992" width="1.743" height="6.525" style="fill: rgb(255, 255, 255);"/>
      <path style="fill: rgb(255, 255, 255);" d="M 249.566 244.717 C 250.233 244.717 250.65 245.439 250.316 246.016 C 250.162 246.284 249.876 246.45 249.566 246.45" transform="matrix(0, -1, 1, 0, 4.416321, 495.583313)"/>
      <path style="fill: rgb(255, 255, 255);" d="M 249.566 252.008 C 250.233 252.008 250.65 252.73 250.316 253.307 C 250.162 253.575 249.876 253.741 249.566 253.741" transform="matrix(0, 1, -1, 0, 502.874313, 2.87468)"/>
    </g>
  </g>
</svg>